<svg viewBox="0 0 940 660" xmlns="http://www.w3.org/2000/svg" font-family="'Segoe UI', Arial, sans-serif">
  <defs>
    <linearGradient id="awsBg" x1="0%" y1="0%" x2="100%" y2="100%">
      <stop offset="0%" style="stop-color:#0d1b2a;stop-opacity:1"/>
      <stop offset="100%" style="stop-color:#1a2e45;stop-opacity:1"/>
    </linearGradient>
    <linearGradient id="vpcGrad" x1="0%" y1="0%" x2="100%" y2="100%">
      <stop offset="0%" style="stop-color:#1a3a5c;stop-opacity:0.9"/>
      <stop offset="100%" style="stop-color:#0f2a44;stop-opacity:0.9"/>
    </linearGradient>
    <linearGradient id="subnetGrad" x1="0%" y1="0%" x2="100%" y2="100%">
      <stop offset="0%" style="stop-color:#0e3d2f;stop-opacity:0.8"/>
      <stop offset="100%" style="stop-color:#0a2d22;stop-opacity:0.8"/>
    </linearGradient>
    <linearGradient id="kaliGrad" x1="0%" y1="0%" x2="100%" y2="100%">
      <stop offset="0%" style="stop-color:#2c1f3e"/>
      <stop offset="100%" style="stop-color:#1a1228"/>
    </linearGradient>
    <linearGradient id="winGrad" x1="0%" y1="0%" x2="100%" y2="100%">
      <stop offset="0%" style="stop-color:#0d2040"/>
      <stop offset="100%" style="stop-color:#071530"/>
    </linearGradient>
    <linearGradient id="toolsGrad" x1="0%" y1="0%" x2="100%" y2="100%">
      <stop offset="0%" style="stop-color:#1a2a0a"/>
      <stop offset="100%" style="stop-color:#0f1e07"/>
    </linearGradient>
    <linearGradient id="cwGrad" x1="0%" y1="0%" x2="100%" y2="100%">
      <stop offset="0%" style="stop-color:#1a6b9a"/>
      <stop offset="100%" style="stop-color:#0f4d73"/>
    </linearGradient>
    <filter id="shadow">
      <feDropShadow dx="2" dy="3" stdDeviation="4" flood-color="#000" flood-opacity="0.4"/>
    </filter>
    <marker id="arrow" markerWidth="8" markerHeight="6" refX="8" refY="3" orient="auto">
      <polygon points="0 0, 8 3, 0 6" fill="#4fc3f7"/>
    </marker>
    <marker id="arrowRed" markerWidth="8" markerHeight="6" refX="8" refY="3" orient="auto">
      <polygon points="0 0, 8 3, 0 6" fill="#ef5350"/>
    </marker>
    <marker id="arrowGreen" markerWidth="8" markerHeight="6" refX="8" refY="3" orient="auto">
      <polygon points="0 0, 8 3, 0 6" fill="#66bb6a"/>
    </marker>
    <marker id="arrowOrange" markerWidth="8" markerHeight="6" refX="8" refY="3" orient="auto">
      <polygon points="0 0, 8 3, 0 6" fill="#ffa726"/>
    </marker>
  </defs>

  <!-- Background -->
  <rect width="940" height="660" fill="url(#awsBg)" rx="12"/>

  <!-- Title -->
  <text x="470" y="36" text-anchor="middle" fill="#ffffff" font-size="18" font-weight="700" letter-spacing="1">AWS Cybersecurity Homelab — Real-Time Monitoring</text>
  <text x="470" y="56" text-anchor="middle" fill="#90caf9" font-size="11">Single VPC · Kali Linux · Windows Server 2019 · Splunk Enterprise · Nessus Essentials</text>
  <line x1="60" y1="66" x2="880" y2="66" stroke="#2c5282" stroke-width="1"/>

  <!-- VPC Box -->
  <rect x="30" y="78" width="880" height="520" rx="10" fill="url(#vpcGrad)" stroke="#2d7dd2" stroke-width="1.5" stroke-dasharray="8,4" filter="url(#shadow)"/>
  <text x="50" y="98" fill="#4fc3f7" font-size="11" font-weight="600">AWS VPC  10.0.0.0/16</text>

  <!-- Public Subnet -->
  <rect x="50" y="106" width="660" height="470" rx="8" fill="url(#subnetGrad)" stroke="#27ae60" stroke-width="1.2" stroke-dasharray="6,3"/>
  <text x="70" y="124" fill="#66bb6a" font-size="10" font-weight="600">Public Subnet  10.0.1.0/24  ·  us-east-1a</text>

  <!-- Security Groups labels -->
  <rect x="68" y="133" width="300" height="18" rx="4" fill="none" stroke="#9c27b0" stroke-width="0.8" stroke-dasharray="3,2"/>
  <text x="218" y="145" text-anchor="middle" fill="#ce93d8" font-size="8.5">SG: win-kali-sg  (SSH :22, RDP :3389, ICMP)</text>

  <rect x="378" y="133" width="320" height="18" rx="4" fill="none" stroke="#009688" stroke-width="0.8" stroke-dasharray="3,2"/>
  <text x="538" y="145" text-anchor="middle" fill="#80cbc4" font-size="8.5">SG: tools-sg  (SSH :22, Splunk :8000/:9997, Nessus :8834, ICMP)</text>

  <!-- ====== KALI LINUX EC2 ====== -->
  <rect x="68" y="158" width="300" height="240" rx="10" fill="url(#kaliGrad)" stroke="#7b1fa2" stroke-width="2" filter="url(#shadow)"/>
  <rect x="68" y="158" width="300" height="38" rx="10" fill="#7b1fa2"/>
  <rect x="68" y="186" width="300" height="10" rx="0" fill="#7b1fa2"/>
  <text x="218" y="178" text-anchor="middle" fill="#ffffff" font-size="12" font-weight="700">🐉  Kali Linux  (t3.small · 12 GB)</text>
  <text x="218" y="192" text-anchor="middle" fill="#e1bee7" font-size="9">AMI: kali-*-amd64 · SSH :22 · RDP :3389 (XFCE)</text>

  <!-- Kali tools -->
  <text x="88" y="218" fill="#ce93d8" font-size="10" font-weight="600">Attack Tooling</text>
  <rect x="85" y="224" width="130" height="60" rx="6" fill="#1a0d2e" stroke="#9c27b0" stroke-width="1"/>
  <text x="150" y="244" text-anchor="middle" fill="#e040fb" font-size="13">⚔</text>
  <text x="150" y="260" text-anchor="middle" fill="#ce93d8" font-size="10" font-weight="600">Metasploit</text>
  <text x="150" y="274" text-anchor="middle" fill="#78909c" font-size="8.5">Exploitation Framework</text>

  <rect x="225" y="224" width="130" height="60" rx="6" fill="#1a0d2e" stroke="#9c27b0" stroke-width="1"/>
  <text x="290" y="244" text-anchor="middle" fill="#e040fb" font-size="13">🔎</text>
  <text x="290" y="260" text-anchor="middle" fill="#ce93d8" font-size="10" font-weight="600">Nmap</text>
  <text x="290" y="274" text-anchor="middle" fill="#78909c" font-size="8.5">Network Scanner</text>

  <rect x="85" y="294" width="130" height="60" rx="6" fill="#1a0d2e" stroke="#9c27b0" stroke-width="1"/>
  <text x="150" y="314" text-anchor="middle" fill="#e040fb" font-size="13">🕵</text>
  <text x="150" y="330" text-anchor="middle" fill="#ce93d8" font-size="10" font-weight="600">Wireshark</text>
  <text x="150" y="344" text-anchor="middle" fill="#78909c" font-size="8.5">Packet Analysis</text>

  <rect x="225" y="294" width="130" height="60" rx="6" fill="#1a0d2e" stroke="#9c27b0" stroke-width="1"/>
  <text x="290" y="314" text-anchor="middle" fill="#e040fb" font-size="13">💣</text>
  <text x="290" y="330" text-anchor="middle" fill="#ce93d8" font-size="10" font-weight="600">John / Hydra</text>
  <text x="290" y="344" text-anchor="middle" fill="#78909c" font-size="8.5">Password Cracking</text>

  <rect x="85" y="364" width="270" height="26" rx="5" fill="#0d0920" stroke="#4a148c" stroke-width="1"/>
  <text x="220" y="381" text-anchor="middle" fill="#78909c" font-size="8.5">setup: kali_setup.sh · RDP: xfreerdp /u:kali /v:&lt;ip&gt;:3389</text>

  <!-- ====== WINDOWS SERVER EC2 ====== -->
  <rect x="68" y="415" width="300" height="145" rx="10" fill="url(#winGrad)" stroke="#1565c0" stroke-width="2" filter="url(#shadow)"/>
  <rect x="68" y="415" width="300" height="38" rx="10" fill="#1565c0"/>
  <rect x="68" y="443" width="300" height="10" rx="0" fill="#1565c0"/>
  <text x="218" y="435" text-anchor="middle" fill="#ffffff" font-size="12" font-weight="700">🪟  Windows Server 2019  (t3.medium · 30 GB)</text>
  <text x="218" y="449" text-anchor="middle" fill="#bbdefb" font-size="9">AMI: Windows_Server-2019 · RDP :3389</text>

  <rect x="85" y="460" width="130" height="60" rx="6" fill="#071228" stroke="#1976d2" stroke-width="1"/>
  <text x="150" y="480" text-anchor="middle" fill="#64b5f6" font-size="13">🎯</text>
  <text x="150" y="496" text-anchor="middle" fill="#90caf9" font-size="10" font-weight="600">Attack Target</text>
  <text x="150" y="510" text-anchor="middle" fill="#78909c" font-size="8.5">Vulnerable Host</text>

  <rect x="225" y="460" width="130" height="60" rx="6" fill="#071228" stroke="#1976d2" stroke-width="1"/>
  <text x="290" y="480" text-anchor="middle" fill="#64b5f6" font-size="13">📋</text>
  <text x="290" y="496" text-anchor="middle" fill="#90caf9" font-size="10" font-weight="600">Event Logs</text>
  <text x="290" y="510" text-anchor="middle" fill="#78909c" font-size="8.5">Sysmon / WinRM</text>

  <rect x="85" y="530" width="270" height="22" rx="5" fill="#030b1a" stroke="#0d47a1" stroke-width="1"/>
  <text x="220" y="545" text-anchor="middle" fill="#78909c" font-size="8.5">Password: aws ec2 get-password-data --instance-id … --priv-launch-key deployer_key.pem</text>

  <!-- ====== TOOLS EC2 (Ubuntu + Splunk + Nessus) ====== -->
  <rect x="382" y="158" width="316" height="400" rx="10" fill="url(#toolsGrad)" stroke="#2e7d32" stroke-width="2" filter="url(#shadow)"/>
  <rect x="382" y="158" width="316" height="38" rx="10" fill="#2e7d32"/>
  <rect x="382" y="186" width="316" height="10" rx="0" fill="#2e7d32"/>
  <text x="540" y="178" text-anchor="middle" fill="#ffffff" font-size="12" font-weight="700">🛡  Security Tools  (t3.large · 30 GB)</text>
  <text x="540" y="192" text-anchor="middle" fill="#c8e6c9" font-size="9">Ubuntu 20.04 · IAM Instance Profile · SSH :22</text>

  <!-- Splunk -->
  <rect x="398" y="208" width="280" height="155" rx="8" fill="#1a1200" stroke="#f57f17" stroke-width="1.5"/>
  <text x="538" y="228" text-anchor="middle" fill="#ffcc02" font-size="11" font-weight="700">📊 Splunk Enterprise</text>
  <line x1="408" y1="233" x2="668" y2="233" stroke="#f57f17" stroke-width="0.8"/>

  <rect x="408" y="240" width="120" height="55" rx="5" fill="#0d0900" stroke="#e65100" stroke-width="1"/>
  <text x="468" y="258" text-anchor="middle" fill="#ffb74d" font-size="9.5" font-weight="600">Web UI</text>
  <text x="468" y="272" text-anchor="middle" fill="#78909c" font-size="8.5">:8000</text>
  <text x="468" y="286" text-anchor="middle" fill="#78909c" font-size="8.5">Search &amp; Dashboards</text>

  <rect x="538" y="240" width="130" height="55" rx="5" fill="#0d0900" stroke="#e65100" stroke-width="1"/>
  <text x="603" y="258" text-anchor="middle" fill="#ffb74d" font-size="9.5" font-weight="600">Forwarder Port</text>
  <text x="603" y="272" text-anchor="middle" fill="#78909c" font-size="8.5">:9997</text>
  <text x="603" y="286" text-anchor="middle" fill="#78909c" font-size="8.5">Log Ingestion</text>

  <rect x="408" y="302" width="260" height="52" rx="5" fill="#0d0900" stroke="#e65100" stroke-width="1"/>
  <text x="538" y="318" text-anchor="middle" fill="#ffb74d" font-size="9" font-weight="600">Data Sources Monitored</text>
  <text x="538" y="333" text-anchor="middle" fill="#78909c" font-size="8.5">Syslog · Windows Events · VPC Flow Logs</text>
  <text x="538" y="346" text-anchor="middle" fill="#78909c" font-size="8.5">setup: splunk_setup.sh + splunk_inputs.conf</text>

  <!-- Nessus -->
  <rect x="398" y="373" width="280" height="115" rx="8" fill="#1a0a00" stroke="#bf360c" stroke-width="1.5"/>
  <text x="538" y="393" text-anchor="middle" fill="#ff7043" font-size="11" font-weight="700">🔬 Nessus Essentials</text>
  <line x1="408" y1="398" x2="668" y2="398" stroke="#bf360c" stroke-width="0.8"/>

  <rect x="408" y="405" width="120" height="55" rx="5" fill="#0d0500" stroke="#bf360c" stroke-width="1"/>
  <text x="468" y="423" text-anchor="middle" fill="#ff8a65" font-size="9.5" font-weight="600">Web UI (HTTPS)</text>
  <text x="468" y="437" text-anchor="middle" fill="#78909c" font-size="8.5">:8834</text>
  <text x="468" y="451" text-anchor="middle" fill="#78909c" font-size="8.5">Vuln Management</text>

  <rect x="538" y="405" width="130" height="55" rx="5" fill="#0d0500" stroke="#bf360c" stroke-width="1"/>
  <text x="603" y="423" text-anchor="middle" fill="#ff8a65" font-size="9.5" font-weight="600">Scan Coverage</text>
  <text x="603" y="437" text-anchor="middle" fill="#78909c" font-size="8.5">Kali · Windows · Tools</text>
  <text x="603" y="451" text-anchor="middle" fill="#78909c" font-size="8.5">CVE Prioritization</text>

  <rect x="398" y="471" width="280" height="22" rx="5" fill="#0d0500" stroke="#4e342e" stroke-width="1"/>
  <text x="538" y="486" text-anchor="middle" fill="#78909c" font-size="8.5">setup: nessus_install.sh · verify: verify_lab.sh</text>

  <!-- Nessus scanning Kali + Windows arrow -->
  <line x1="382" y1="440" x2="370" y2="440" stroke="#bf360c" stroke-width="1.5" stroke-dasharray="4,3" marker-end="url(#arrowRed)"/>

  <!-- Splunk receiving from Windows arrow -->
  <line x1="382" y1="330" x2="370" y2="330" stroke="#f57f17" stroke-width="1.5" stroke-dasharray="4,3" marker-end="url(#arrowOrange)"/>

  <!-- Kali attacks Windows arrow -->
  <line x1="218" y1="399" x2="218" y2="413" stroke="#e040fb" stroke-width="1.5" marker-end="url(#arrowRed)"/>
  <text x="225" y="410" fill="#ce93d8" font-size="8">Attack</text>

  <!-- ====== RIGHT PANEL: CloudWatch + IAM ====== -->
  <!-- CloudWatch -->
  <rect x="730" y="100" width="160" height="120" rx="8" fill="url(#cwGrad)" stroke="#4fc3f7" stroke-width="1.5" filter="url(#shadow)"/>
  <text x="810" y="122" text-anchor="middle" fill="#e3f2fd" font-size="11" font-weight="700">☁ CloudWatch</text>
  <line x1="742" y1="128" x2="878" y2="128" stroke="#2196f3" stroke-width="0.8"/>
  <text x="810" y="143" text-anchor="middle" fill="#90caf9" font-size="9.5" font-weight="600">VPC Flow Logs</text>
  <text x="810" y="157" text-anchor="middle" fill="#78909c" font-size="8.5">/aws/vpc-flow-logs/</text>
  <text x="810" y="170" text-anchor="middle" fill="#78909c" font-size="8.5">retention: 14 days</text>
  <text x="810" y="184" text-anchor="middle" fill="#90caf9" font-size="9">ALL traffic logged</text>
  <text x="810" y="198" text-anchor="middle" fill="#78909c" font-size="8.5">IAM Role: flow-logs</text>
  <text x="810" y="212" text-anchor="middle" fill="#78909c" font-size="8.5">iam_role_policy attached</text>

  <!-- IAM -->
  <rect x="730" y="238" width="160" height="110" rx="8" fill="#1a2a0a" stroke="#66bb6a" stroke-width="1.5" filter="url(#shadow)"/>
  <text x="810" y="260" text-anchor="middle" fill="#a5d6a7" font-size="11" font-weight="700">🔑 IAM</text>
  <line x1="742" y1="266" x2="878" y2="266" stroke="#4caf50" stroke-width="0.8"/>
  <text x="810" y="282" text-anchor="middle" fill="#90caf9" font-size="9">Tools Instance Profile</text>
  <text x="810" y="296" text-anchor="middle" fill="#78909c" font-size="8.5">CloudWatch Logs</text>
  <text x="810" y="310" text-anchor="middle" fill="#78909c" font-size="8.5">SSM Session Manager</text>
  <text x="810" y="324" text-anchor="middle" fill="#78909c" font-size="8.5">EC2Messages access</text>
  <text x="810" y="338" text-anchor="middle" fill="#78909c" font-size="8.5">least-privilege policy</text>

  <!-- IGW -->
  <rect x="730" y="368" width="160" height="60" rx="8" fill="#1a3a5c" stroke="#4fc3f7" stroke-width="1.5" filter="url(#shadow)"/>
  <text x="810" y="393" text-anchor="middle" fill="#4fc3f7" font-size="12" font-weight="700">🌐 Internet</text>
  <text x="810" y="411" text-anchor="middle" fill="#90caf9" font-size="10">Gateway</text>

  <!-- Security Badges -->
  <rect x="730" y="448" width="160" height="24" rx="12" fill="#1a3a5c" stroke="#2d7dd2" stroke-width="1"/>
  <text x="810" y="464" text-anchor="middle" fill="#90caf9" font-size="9" font-weight="600">🔒 IMDSv2 Enforced</text>
  <rect x="730" y="480" width="160" height="24" rx="12" fill="#1a2a0a" stroke="#27ae60" stroke-width="1"/>
  <text x="810" y="496" text-anchor="middle" fill="#a5d6a7" font-size="9" font-weight="600">📦 EBS Encrypted</text>
  <rect x="730" y="512" width="160" height="24" rx="12" fill="#2a0a1a" stroke="#e91e63" stroke-width="1"/>
  <text x="810" y="528" text-anchor="middle" fill="#f48fb1" font-size="9" font-weight="600">🌐 IP-Restricted SGs</text>
  <rect x="730" y="544" width="160" height="24" rx="12" fill="#1a1a0a" stroke="#ff9800" stroke-width="1"/>
  <text x="810" y="560" text-anchor="middle" fill="#ffcc80" font-size="9" font-weight="600">📊 VPC Flow Logs ON</text>

  <!-- Arrows: VPC -> IGW -->
  <line x1="714" y1="398" x2="727" y2="398" stroke="#4fc3f7" stroke-width="1.5" marker-end="url(#arrow)"/>
  <!-- Subnet -> CloudWatch -->
  <line x1="714" y1="160" x2="727" y2="160" stroke="#4fc3f7" stroke-width="1.5" stroke-dasharray="4,3" marker-end="url(#arrow)"/>
  <!-- Tools -> IAM -->
  <line x1="714" y1="293" x2="727" y2="293" stroke="#66bb6a" stroke-width="1.5" stroke-dasharray="4,3" marker-end="url(#arrowGreen)"/>

  <!-- ====== Bottom: Operator + attack/defend flow ====== -->
  <rect x="50" y="610" width="820" height="40" rx="8" fill="#0a1220" stroke="#37474f" stroke-width="1"/>
  <text x="65" y="626" fill="#4fc3f7" font-size="10" font-weight="700">Workflow:</text>
  <text x="145" y="626" fill="#ce93d8" font-size="9">① Kali attacks Windows</text>
  <text x="295" y="626" fill="#78909c" font-size="9">→</text>
  <text x="315" y="626" fill="#ffb74d" font-size="9">② Splunk detects anomalies</text>
  <text x="470" y="626" fill="#78909c" font-size="9">→</text>
  <text x="490" y="626" fill="#ff8a65" font-size="9">③ Nessus scans all hosts for CVEs</text>
  <text x="685" y="626" fill="#78909c" font-size="9">→</text>
  <text x="705" y="626" fill="#a5d6a7" font-size="9">④ Remediate &amp; verify</text>

  <text x="65" y="642" fill="#78909c" font-size="8.5">Cleanup: terraform destroy  ·  All IaC: Terraform ≥1.5  ·  SSH key: terraform output -raw private_key_pem > deployer_key.pem &amp;&amp; chmod 400 deployer_key.pem</text>
</svg>
